<?xml version="1.0" encoding="UTF-8"?>
<svg xmlns="http://www.w3.org/2000/svg" id="Out_line" data-name="Out line" viewBox="0 0 512 512" width="512" height="512">
<style type="text/css"><![CDATA[
		.cc{fill: #fdfdff;}
		]]></style>
<path class="cc" d="M451.61261,116.91919C459.842,101.74658,464,89.38306,464,80A63.95973,63.95973,0,0,0,353.135,36.47705,240.05153,240.05153,0,0,0,16,256a238.27832,238.27832,0,0,0,18.69336,92.97437A23.84426,23.84426,0,0,0,32,360v82.707a27.99237,27.99237,0,0,0,18.25964,52.57886A23.97889,23.97889,0,0,0,56,496h96a24.0309,24.0309,0,0,0,21.98792-14.39551,240.04564,240.04564,0,0,0,277.62469-364.6853ZM400,32a48.054,48.054,0,0,1,48,48c0,6.27246-3.44189,21.74805-26.49268,54.92188-8.05322,11.58984-16.18408,21.96679-21.50781,28.54-5.30273-6.54589-13.39209-16.86914-21.43115-28.43066C355.45166,101.78613,352,86.28223,352,80A48.054,48.054,0,0,1,400,32ZM112,304H80v-8h32ZM80,320h32v16H80ZM65.37616,352A23.88535,23.88535,0,0,0,64,360v88.43066a27.94394,27.94394,0,0,0-16-8.14038V360a8.00917,8.00917,0,0,1,8-8ZM32,468a12,12,0,1,1,12,12A12.01343,12.01343,0,0,1,32,468Zm128,4a8.00917,8.00917,0,0,1-8,8H88a8.00917,8.00917,0,0,1-8-8V360a8.00917,8.00917,0,0,1,8-8h64a8.00917,8.00917,0,0,1,8,8Zm254.39209-57.6084c-1.58191,1.582-3.18958,3.12842-4.80994,4.657l-37.42736-10.20776L288,324.68652V252.94434l11.57764-5.78907-7.15528-14.31054-16,8A7.99979,7.99979,0,0,0,272,248v80a8.00076,8.00076,0,0,0,2.34326,5.65723l88,88a7.99692,7.99692,0,0,0,3.55176,2.06054l29.12421,7.94287A224.40375,224.40375,0,0,1,189.58136,469.9812l38.53436-23.12085A8.00091,8.00091,0,0,0,232,440V336a8.00041,8.00041,0,0,0-6.43115-7.84473l-37.625-7.52441-18.791-18.792L173.76611,288H200a8.00005,8.00005,0,0,0,7.76123-6.05957l8-32a8.00091,8.00091,0,0,0-6.62988-9.86035L160,233.06152V208h48a7.99956,7.99956,0,0,0,7.353-4.84863l6.85693-16-14.70605-6.30274L202.72461,192H152a8.00008,8.00008,0,0,0-8,8v40a8.00031,8.00031,0,0,0,6.86865,7.91992L198.0874,254.665,193.75391,272H168a7.99967,7.99967,0,0,0-7.58936,5.46973l-8,24a8.00083,8.00083,0,0,0,1.93262,8.1875l24,24a8.00171,8.00171,0,0,0,4.08789,2.1875L216,342.55859V435.4707l-40,23.99951V360a24.02718,24.02718,0,0,0-24-24H128V288a8.00008,8.00008,0,0,0-8-8H72a8.00008,8.00008,0,0,0-8,8v48H56a23.86791,23.86791,0,0,0-8.65161,1.61987A224.47527,224.47527,0,0,1,160,53.48779V80a8.00076,8.00076,0,0,0,2.34326,5.65723l56,56,11.31348-11.31446L176,76.68652V46.65234A223.93918,223.93918,0,0,1,256,32c5.369,0,10.70081.206,16,.57568V88a8.00091,8.00091,0,0,0,3.2002,6.40039l30.00048,22.5L320,161.29785V200h16V160a8.00643,8.00643,0,0,0-.41064-2.53027l-16-48a8.00519,8.00519,0,0,0-2.78956-3.87012L288,84V34.25757a220.74558,220.74558,0,0,1,55.59546,15.53491A63.59844,63.59844,0,0,0,336,80c0,14.49023,9.90234,36.0791,29.43164,64.165,6.34815,9.12964,12.64594,17.41748,17.70557,23.835H360v16h80V168H416.86279c5.05963-6.41748,11.35742-14.70532,17.70557-23.835q4.3515-6.25782,8.05945-12.08057A224.05052,224.05052,0,0,1,414.39209,414.3916Z"/>
<rect class="cc" x="88" y="368" width="16" height="96"/>
<rect class="cc" x="112" y="368" width="16" height="96"/>
<rect class="cc" x="136" y="368" width="16" height="96"/>
<path class="cc" d="M96,216a24,24,0,1,0,24,24A24.02718,24.02718,0,0,0,96,216Zm0,32a8,8,0,1,1,8-8A8.00917,8.00917,0,0,1,96,248Z"/>
<path class="cc" d="M138.03613,174.72754l10.27051,12.26953a81.5605,81.5605,0,0,1,12.55811-8.65039L153.061,164.37793A97.73484,97.73484,0,0,0,138.03613,174.72754Z"/>
<rect class="cc" x="117.44857" y="191.04661" width="16.77083" height="16.00052" transform="translate(-106.82422 162.65996) rotate(-48.81079)"/>
<path class="cc" d="M354.28027,215.26953,356.418,231.127a97.74016,97.74016,0,0,0,17.77295-4.12011l-5.05567-15.17969A81.65916,81.65916,0,0,1,354.28027,215.26953Z"/>
<path class="cc" d="M320.14355,229.1875a97.74227,97.74227,0,0,0,18.04444,2.67285l.85351-15.97656a81.69938,81.69938,0,0,1-15.08252-2.23535Z"/>
<path class="cc" d="M383.08887,205.67871l7.79394,13.97266a97.69746,97.69746,0,0,0,15.0293-10.33692l-10.26172-12.27539A81.70741,81.70741,0,0,1,383.08887,205.67871Z"/>
<path class="cc" d="M287.09766,214.10352a97.75967,97.75967,0,0,0,15.81445,9.09472l6.64453-14.55469a81.80805,81.80805,0,0,1-13.21973-7.60253Z"/>
<rect class="cc" x="263.97671" y="183.59591" width="16.00018" height="16.77106" transform="translate(-47.8364 284.43561) rotate(-51.34123)"/>
<path class="cc" d="M204.90576,168.11328a81.58886,81.58886,0,0,1,15.085,2.22461l3.80664-15.541a97.6646,97.6646,0,0,0-18.04882-2.66211Z"/>
<path class="cc" d="M234.39844,175.33594a81.63285,81.63285,0,0,1,13.22265,7.59179l9.23047-13.06835a97.72694,97.72694,0,0,0-15.81933-9.084Z"/>
<path class="cc" d="M169.751,157.01172l5.06347,15.17773a81.66013,81.66013,0,0,1,14.853-3.45117L187.521,152.88281A97.72044,97.72044,0,0,0,169.751,157.01172Z"/>
<path class="cc" d="M400,120a40,40,0,1,0-40-40A40.04552,40.04552,0,0,0,400,120Zm0-64a24,24,0,1,1-24,24A24.0275,24.0275,0,0,1,400,56Z"/>
</svg>
